<svg width="85" height="16" viewBox="0 0 244 48" fill="none" xmlns="http://www.w3.org/2000/svg">
<path d="M26 47L26.384 36.952H15.696L12.56 47H0.336L16.784 0.919998H37.904L38.16 47H26ZM23.376 12.12L18.32 28.376H26.704L27.408 12.12H23.376ZM86.1605 10.904H70.4165L64.0805 47H52.4965L58.8325 10.904H43.0245L44.8165 0.919998H87.9525L86.1605 10.904ZM109.987 0.471996C120.27 0.471996 125.411 4.67466 125.411 13.08C125.411 14.488 125.262 16.0027 124.963 17.624L122.723 30.424C121.699 36.3547 119.48 40.7493 116.067 43.608C112.654 46.4667 107.854 47.896 101.667 47.896C95.4803 47.896 91.171 46.4667 88.739 43.608C87.075 41.6453 86.243 38.936 86.243 35.48C86.243 33.944 86.4137 32.2587 86.755 30.424L88.995 17.624C91.0003 6.18933 97.9977 0.471996 109.987 0.471996ZM103.395 37.976C105.528 37.976 107.235 37.4213 108.515 36.312C109.795 35.2027 110.691 33.1547 111.203 30.168L113.379 17.88C113.507 17.0267 113.571 16.2587 113.571 15.576C113.571 12.12 111.822 10.392 108.323 10.392C103.928 10.4773 101.304 12.9733 100.451 17.88L98.275 30.168C98.1043 31.2347 98.019 32.344 98.019 33.496C98.019 36.4827 99.811 37.976 103.395 37.976ZM147.751 0.919998L154.599 23L169.319 0.919998H181.415L173.287 47H161.703L166.311 21.016L156.455 36.504H148.071L143.719 21.016L139.111 47H127.591L135.719 0.919998H147.751ZM202.052 0.919998L193.988 47H182.404L190.532 0.919998H202.052ZM219.221 47.896C213.119 47.896 208.895 46.5733 206.549 43.928C204.927 42.0507 204.117 39.4267 204.117 36.056C204.117 34.6053 204.266 33.048 204.565 31.384L207.189 16.664C209.109 5.86933 216.042 0.471996 227.989 0.471996C232.938 0.471996 236.693 1.53866 239.253 3.672C241.813 5.76266 243.093 8.64266 243.093 12.312C243.093 14.0187 242.837 15.7253 242.325 17.432C241.855 19.096 241.386 20.3333 240.917 21.144L240.213 22.424H228.885C230.293 20.8027 230.997 18.4987 230.997 15.512C230.997 13.9333 230.591 12.696 229.781 11.8C228.97 10.8613 227.775 10.392 226.197 10.392C221.887 10.392 219.327 12.7813 218.517 17.56L216.277 30.488C216.063 31.5973 215.957 32.6853 215.957 33.752C215.957 36.568 217.642 37.976 221.013 37.976C225.066 37.976 227.498 35.6933 228.309 31.128H239.829L239.509 32.984C237.802 42.9253 231.039 47.896 219.221 47.896Z" fill="black"/>
</svg>
